<svg id="图层_2" data-name="图层 2" xmlns="http://www.w3.org/2000/svg" viewBox="0 0 469.57 769.93"><defs><style>.cls-1{fill:#fff;stroke:#231815;stroke-miterlimit:10;}</style></defs><path class="cls-1" d="M106.51,260.05c10.47-30.24,16.28-25.58,17.44-81.4s9.31-70.93,39.54-96.51S274-21.35,375.12,53.07C435.58,115.86,480.93,155.4,480.93,155.4s27.91,25.58,11.63,93-2.33,74.42-2.33,74.42,9.3,15.11,24.42,23.25,8.14,27.91-8.14,48.84c-9,11.61-12.69,35-16.54,56.93-3.1,17.61-6.31,34.26-12.53,43.07-13.95,19.77,10.47,82.56,10.47,82.56s4.65,40.7-23.26,81.39c-16.28,34.89-18.6,89.54-18.6,89.54s-9.31,27.91-82.56,34.88c-36.05,0-15.12-10.46-102.33,5.82s-107-105.82-109.3-134.89-8.21-82.56-74.42-129.07C47.21,494.93,40.23,455.1,97.21,420.94S96.05,290.28,106.51,260.05Z" transform="translate(-53.94 -21.18)"/></svg>